<?xml version="1.0" encoding="UTF-8" standalone="no"?>
<!-- Created with Inkscape (http://www.inkscape.org/) -->

<svg
   xmlns:dc="http://purl.org/dc/elements/1.1/"
   xmlns:cc="http://creativecommons.org/ns#"
   xmlns:rdf="http://www.w3.org/1999/02/22-rdf-syntax-ns#"
   xmlns:svg="http://www.w3.org/2000/svg"
   xmlns="http://www.w3.org/2000/svg"
   xmlns:sodipodi="http://sodipodi.sourceforge.net/DTD/sodipodi-0.dtd"
   xmlns:inkscape="http://www.inkscape.org/namespaces/inkscape"
   id="svg3036"
   version="1.1"
   inkscape:version="0.48.3.1 r9886"
   width="998"
   height="268"
   sodipodi:docname="OHagan3t.pdf">
  <metadata
     id="metadata3042">
    <rdf:RDF>
      <cc:Work
         rdf:about="">
        <dc:format>image/svg+xml</dc:format>
        <dc:type
           rdf:resource="http://purl.org/dc/dcmitype/StillImage" />
        <dc:title></dc:title>
      </cc:Work>
    </rdf:RDF>
  </metadata>
  <defs
     id="defs3040" />
  <sodipodi:namedview
     pagecolor="#ffffff"
     bordercolor="#666666"
     borderopacity="1"
     objecttolerance="10"
     gridtolerance="10"
     guidetolerance="10"
     inkscape:pageopacity="0"
     inkscape:pageshadow="2"
     inkscape:window-width="1680"
     inkscape:window-height="1022"
     id="namedview3038"
     showgrid="false"
     inkscape:zoom="0.7910396"
     inkscape:cx="716.24499"
     inkscape:cy="417.53971"
     inkscape:window-x="1680"
     inkscape:window-y="0"
     inkscape:window-maximized="1"
     inkscape:current-layer="svg3036" />
  <g
     id="g3046"
     transform="translate(0.97496655,1.8953668)">
    <path
       style="fill:#fefefe"
       d="M 0,134 0,0 l 499,0 499,0 0,134 0,134 -499,0 -499,0 0,-134 z"
       id="path3060"
       inkscape:connector-curvature="0" />
    <path
       style="fill:#e3e3e3"
       d="M 7.2,262.8 C 5.4568451,261.05685 5.4568451,5.9431549 7.2,4.2 8.130072,3.269928 118.75556,3 499,3 c 380.24444,0 490.86993,0.269928 491.8,1.2 1.74315,1.7431549 1.74315,256.85685 0,258.6 -1.74958,1.74958 -981.850417,1.74958 -983.6,0 z M 330,216 l 0,-41 -158.5,0 -158.5,0 0,41 0,41 158.5,0 158.5,0 0,-41 z m 336,-22.5 0,-63.5 -164.5,0 -164.5,0 0,63.5 0,63.5 164.5,0 164.5,0 0,-63.5 z m 319,-60 0,-123.5 -156,0 -156,0 0,123.5 0,123.5 156,0 156,0 0,-123.5 z M 330,89 330,10 171.5,10 13,10 l 0,79 0,79 158.5,0 158.5,0 0,-79 z M 666,83.5 666,44 501.5,44 337,44 l 0,39.5 0,39.5 164.5,0 164.5,0 0,-39.5 z m 0,-60 0,-13.5 -164.5,0 -164.5,0 0,13.5 0,13.5 164.5,0 164.5,0 0,-13.5 z"
       id="path3058"
       inkscape:connector-curvature="0" />
    <path
       style="fill:#a6a6a6"
       d="M 8.2,261.8 C 6.4569136,260.05691 6.4569136,6.9430864 8.2,5.2 c 1.7495784,-1.7495784 979.85042,-1.7495784 981.6,0 1.74309,1.7430864 1.74309,254.85691 0,256.6 C 988.86993,262.73007 878.46667,263 499,263 119.53333,263 9.1300654,262.73007 8.2,261.8 z m 323.3,-45.8 0,-42.5 -160,0 -160,0 0,42.5 0,42.5 160,0 160,0 0,-42.5 z m 336,-22.5 0,-65 -166,0 -166,0 0,65 0,65 166,0 166,0 0,-65 z m 319,-60 0,-125 -157.5,0 -157.5,0 0,125 0,125 157.5,0 157.5,0 0,-125 z m -655,-44.5 0,-80.5 -160,0 -160,0 0,80.5 0,80.5 160,0 160,0 0,-80.5 z m 336,-5.5 0,-41 -166,0 -166,0 0,41 0,41 166,0 166,0 0,-41 z m 0,-60 0,-15 -166,0 -166,0 0,15 0,15 166,0 166,0 0,-15 z"
       id="path3056"
       inkscape:connector-curvature="0" />
    <path
       style="fill:#949494"
       d="m 8.0152672,133.5 0,-128.4959473 490.9847328,0 490.98473,0 0,128.4959473 0,128.49595 -490.98473,0 -490.9847328,0 0,-128.49595 z M 331.95604,216 l 0,-42.98773 -160.45604,0 -160.456044,0 0,42.98773 0,42.98773 160.456044,0 160.45604,0 0,-42.98773 z m 336.01455,-22.5 0,-65.48817 -166.47059,0 -166.47059,0 0,65.48817 0,65.48817 166.47059,0 166.47059,0 0,-65.48817 z m 319.01378,-60 0,-125.4875389 -157.98437,0 -157.98438,0 0,125.4875389 0,125.48754 157.98438,0 157.98437,0 0,-125.48754 z M 331.97605,89 l 0,-80.9877301 -160.47605,0 -160.476048,0 0,80.9877301 0,80.98773 160.476048,0 160.47605,0 0,-80.98773 z m 335.9785,-5.5 0,-41.488166 -166.45455,0 -166.45455,0 0,41.488166 0,41.48817 166.45455,0 166.45455,0 0,-41.48817 z m -0.0657,-60 0,-15.4881657 -166.38889,0 -166.38889,0 0,15.4881657 0,15.488166 166.38889,0 166.38889,0 0,-15.488166 z"
       id="path3054"
       inkscape:connector-curvature="0" />
    <path
       style="fill:#585858"
       d="M 9.2,260.8 C 7.4569832,259.05698 7.4569832,7.9430168 9.2,6.2 c 1.749574,-1.7495737 977.85043,-1.7495737 979.6,0 1.74302,1.7430168 1.74302,252.85698 0,254.6 -1.74957,1.74957 -977.850426,1.74957 -979.6,0 z M 332,216 l 0,-43 -160.5,0 -160.5,0 0,43 0,43 160.5,0 160.5,0 0,-43 z m 336,-22.5 0,-65.5 -166.5,0 -166.5,0 0,65.5 0,65.5 166.5,0 166.5,0 0,-65.5 z M 987,133.5 987,8 829,8 671,8 l 0,125.5 0,125.5 158,0 158,0 0,-125.5 z M 332,89 332,8 171.5,8 11,8 l 0,81 0,81 160.5,0 160.5,0 0,-81 z M 668,83.5 668,42 501.5,42 335,42 l 0,41.5 0,41.5 166.5,0 166.5,0 0,-41.5 z m 0,-60 L 668,8 501.5,8 335,8 l 0,15.5 0,15.5 166.5,0 166.5,0 0,-15.5 z"
       id="path3052"
       inkscape:connector-curvature="0" />
    <path
       style="fill:#353535"
       d="M 9,133.5 9,6 499,6 989,6 989,133.5 989,261 499,261 9,261 9,133.5 z m 322.8,125.3 c 1.72501,-1.72501 1.72501,-83.87499 0,-85.6 -0.92328,-0.92328 -37.88889,-1.2 -160.3,-1.2 -122.411111,0 -159.376723,0.27672 -160.3,1.2 -1.7250082,1.72501 -1.7250082,83.87499 0,85.6 0.923277,0.92328 37.888889,1.2 160.3,1.2 122.41111,0 159.37672,-0.27672 160.3,-1.2 z m 336,0 c 1.73445,-1.73445 1.73445,-128.86555 0,-130.6 -1.74511,-1.74511 -330.85489,-1.74511 -332.6,0 -1.73445,1.73445 -1.73445,128.86555 0,130.6 0.92364,0.92364 39.22222,1.2 166.3,1.2 127.07778,0 165.37636,-0.27636 166.3,-1.2 z m 319,0 c 1.74287,-1.74287 1.74287,-248.8571258 0,-250.6 -1.74474,-1.7447392 -313.85526,-1.7447392 -315.6,0 -1.74287,1.7428742 -1.74287,248.85713 0,250.6 0.92312,0.92312 37.33333,1.2 157.8,1.2 120.46667,0 156.87688,-0.27688 157.8,-1.2 z m -655,-89 c 1.73785,-1.73785 1.73785,-159.862154 0,-161.6 -1.74485,-1.7448511 -318.855149,-1.7448511 -320.6,0 -1.737846,1.737846 -1.737846,159.86215 0,161.6 0.923277,0.92328 37.888889,1.2 160.3,1.2 122.41111,0 159.37672,-0.27672 160.3,-1.2 z m 336,-45 c 1.724,-1.724 1.724,-80.875999 0,-82.6 -1.74511,-1.745106 -330.85489,-1.745106 -332.6,0 -1.724,1.724001 -1.724,80.876 0,82.6 1.74511,1.74511 330.85489,1.74511 332.6,0 z m 0,-86 c 1.67219,-1.672194 1.67219,-28.9278061 0,-30.6 -1.74511,-1.7451057 -330.85489,-1.7451057 -332.6,0 -1.67219,1.6721939 -1.67219,28.927806 0,30.6 1.74511,1.745106 330.85489,1.745106 332.6,0 z"
       id="path3050"
       inkscape:connector-curvature="0" />
    <path
       style="fill:#1a1a1a"
       d="M 9.5,260 C 9.1600813,259.45 9.3585237,259 9.940983,259 10.523442,259 11,259.45 11,260 c 0,0.55 -0.198442,1 -0.440983,1 C 10.316476,261 9.8399187,260.55 9.5,260 z m 322.66667,0 c 0.50335,-1.51005 2.11144,-1.66567 2.58333,-0.25 0.22917,0.6875 -0.33333,1.25 -1.25,1.25 -0.91667,0 -1.51667,-0.45 -1.33333,-1 z m 336,0 c 0.50335,-1.51005 2.11144,-1.66567 2.58333,-0.25 0.22917,0.6875 -0.33333,1.25 -1.25,1.25 -0.91667,0 -1.51667,-0.45 -1.33333,-1 z M 987,260.05902 C 987,259.47656 987.45,259 988,259 c 1.28138,0 1.28138,0.70806 0,1.5 -0.55,0.33992 -1,0.14148 -1,-0.44098 z M 9,171.5 c 0,-0.91667 0.5625,-1.47917 1.25,-1.25 1.415672,0.47189 1.260051,2.07998 -0.25,2.58333 C 9.45,173.01667 9,172.41667 9,171.5 z m 322.69385,0.86052 C 330.89492,171.56159 331.79804,170 333.05902,170 c 0.51754,0 0.94098,0.675 0.94098,1.5 0,1.54641 -1.17996,1.9867 -2.30615,0.86052 z M 333,126.5 c 0,-0.91667 0.5625,-1.47917 1.25,-1.25 1.41567,0.47189 1.26005,2.07998 -0.25,2.58333 -0.55,0.18334 -1,-0.41666 -1,-1.33333 z m 334.69385,0.86052 C 666.89492,126.56159 667.79804,125 669.05902,125 c 0.51754,0 0.94098,0.675 0.94098,1.5 0,1.54641 -1.17996,1.9867 -2.30615,0.86052 z M 333,40.5 c 0,-0.916667 0.5625,-1.479167 1.25,-1.25 1.41567,0.471891 1.26005,2.079983 -0.25,2.583333 -0.55,0.183334 -1,-0.416666 -1,-1.333333 z m 334.69385,0.86052 C 666.89492,40.561589 667.79804,39 669.05902,39 669.57656,39 670,39.675 670,40.5 c 0,1.54641 -1.17996,1.986704 -2.30615,0.86052 z M 332.63948,8.3061468 C 331.5133,7.1799629 331.95359,6 333.5,6 c 0.825,0 1.5,0.4234424 1.5,0.940983 0,1.2609777 -1.56159,2.1640945 -2.36052,1.3651638 z m 336,0 C 667.5133,7.1799629 667.95359,6 669.5,6 c 0.825,0 1.5,0.4234424 1.5,0.940983 0,1.2609777 -1.56159,2.1640945 -2.36052,1.3651638 z M 9,7.559017 C 9,7.3164763 9.45,6.8399187 10,6.5 10.55,6.1600813 11,6.3585237 11,6.940983 11,7.5234424 10.55,8 10,8 9.45,8 9,7.8015576 9,7.559017 z M 987,7 c 0,-0.55 0.19844,-1 0.44098,-1 0.24254,0 0.7191,0.45 1.05902,1 0.33992,0.55 0.14148,1 -0.44098,1 C 987.47656,8 987,7.55 987,7 z"
       id="path3048"
       inkscape:connector-curvature="0" />
  </g>
  <text
     xml:space="preserve"
     style="font-size:44px;font-style:normal;font-variant:normal;font-weight:normal;font-stretch:normal;text-align:start;line-height:125%;letter-spacing:0px;word-spacing:0px;writing-mode:lr-tb;text-anchor:start;fill:#000000;fill-opacity:1;stroke:none;font-family:Linux Biolinum O;-inkscape-font-specification:Linux Biolinum O"
     x="91.019463"
     y="230.07521"
     id="text3101"
     sodipodi:linespacing="125%"><tspan
       sodipodi:role="line"
       id="tspan3103"
       x="91.019463"
       y="230.07521">AOI A</tspan></text>
  <text
     xml:space="preserve"
     style="font-size:44px;font-style:normal;font-variant:normal;font-weight:normal;font-stretch:normal;text-align:start;line-height:125%;letter-spacing:0px;word-spacing:0px;writing-mode:lr-tb;text-anchor:start;fill:#000000;fill-opacity:1;stroke:none;font-family:Linux Biolinum O;-inkscape-font-specification:Linux Biolinum O"
     x="441.19156"
     y="94.810188"
     id="text3105"
     sodipodi:linespacing="125%"><tspan
       sodipodi:role="line"
       id="tspan3107"
       x="441.19156"
       y="94.810188">AOI B</tspan></text>
  <text
     xml:space="preserve"
     style="font-size:44px;font-style:normal;font-variant:normal;font-weight:normal;font-stretch:normal;text-align:start;line-height:125%;letter-spacing:0px;word-spacing:0px;writing-mode:lr-tb;text-anchor:start;fill:#000000;fill-opacity:1;stroke:none;font-family:Linux Biolinum O;-inkscape-font-specification:Linux Biolinum O"
     x="776.19373"
     y="150.43318"
     id="text3109"
     sodipodi:linespacing="125%"><tspan
       sodipodi:role="line"
       id="tspan3111"
       x="776.19373"
       y="150.43318">AOI C</tspan></text>
</svg>
