<?xml version="1.0" encoding="UTF-8" standalone="no"?>
<!-- Created with Inkscape (http://www.inkscape.org/) -->

<svg
   xmlns:dc="http://purl.org/dc/elements/1.1/"
   xmlns:cc="http://creativecommons.org/ns#"
   xmlns:rdf="http://www.w3.org/1999/02/22-rdf-syntax-ns#"
   xmlns:svg="http://www.w3.org/2000/svg"
   xmlns="http://www.w3.org/2000/svg"
   xmlns:sodipodi="http://sodipodi.sourceforge.net/DTD/sodipodi-0.dtd"
   xmlns:inkscape="http://www.inkscape.org/namespaces/inkscape"
   id="svg3036"
   version="1.1"
   inkscape:version="0.48.3.1 r9886"
   width="575.74847"
   height="111.11224"
   sodipodi:docname="Roesener4.svg">
  <metadata
     id="metadata3042">
    <rdf:RDF>
      <cc:Work
         rdf:about="">
        <dc:format>image/svg+xml</dc:format>
        <dc:type
           rdf:resource="http://purl.org/dc/dcmitype/StillImage" />
        <dc:title></dc:title>
      </cc:Work>
    </rdf:RDF>
  </metadata>
  <defs
     id="defs3040">
    <marker
       inkscape:stockid="Arrow1Lstart"
       orient="auto"
       refY="0"
       refX="0"
       id="Arrow1Lstart"
       style="overflow:visible">
      <path
         id="path4082"
         d="M 0,0 5,-5 -12.5,0 5,5 0,0 z"
         style="fill-rule:evenodd;stroke:#000000;stroke-width:1pt"
         transform="matrix(0.8,0,0,0.8,10,0)"
         inkscape:connector-curvature="0" />
    </marker>
    <marker
       inkscape:stockid="Arrow1Lend"
       orient="auto"
       refY="0"
       refX="0"
       id="Arrow1Lend"
       style="overflow:visible">
      <path
         id="path4085"
         d="M 0,0 5,-5 -12.5,0 5,5 0,0 z"
         style="fill-rule:evenodd;stroke:#000000;stroke-width:1pt"
         transform="matrix(-0.8,0,0,-0.8,-10,0)"
         inkscape:connector-curvature="0" />
    </marker>
  </defs>
  <sodipodi:namedview
     pagecolor="#ffffff"
     bordercolor="#666666"
     borderopacity="1"
     objecttolerance="10"
     gridtolerance="10"
     guidetolerance="10"
     inkscape:pageopacity="0"
     inkscape:pageshadow="2"
     inkscape:window-width="1680"
     inkscape:window-height="1022"
     id="namedview3038"
     showgrid="false"
     inkscape:zoom="0.78734946"
     inkscape:cx="309.97563"
     inkscape:cy="194.70317"
     inkscape:window-x="1680"
     inkscape:window-y="0"
     inkscape:window-maximized="1"
     inkscape:current-layer="svg3036"
     fit-margin-top="0"
     fit-margin-left="0"
     fit-margin-right="0"
     fit-margin-bottom="0" />
  <path
     style="fill:#000000"
     d="m 541.24639,91.919051 0,-5.5 -5.5,0 -5.5,0 -0.18498,5.25 -0.18498,5.25 -0.36728,-5.25 -0.36728,-5.25 -5.44774,0 -5.44774,0 -0.18498,5.25 -0.18498,5.25 -0.36728,-5.25 -0.36728,-5.25 -5.94774,0 -5.94774,0 -0.18498,5.25 -0.18498,5.25 -0.36728,-5.25 -0.36728,-5.25 -4.94774,0 -4.94774,0 -0.18498,5.25 -0.18498,5.25 -0.36728,-5.25 -0.36728,-5.25 -5.94774,0 -5.94774,0 -0.18498,5.25 -0.18498,5.25 -0.36728,-5.25 -0.36728,-5.25 -5.44774,0 -5.44774,0 -0.18498,5.25 -0.18498,5.25 -0.36728,-5.25 -0.36728,-5.25 -5.39548,0 -5.39548,0 -0.36728,5.25 -0.36728,5.25 -0.18498,-5.25 -0.18498,-5.25 -5.44774,0 -5.44774,0 -0.36728,5.25 -0.36728,5.25 -0.18498,-5.25 -0.18498,-5.25 -5.94774,0 -5.94774,0 -0.36728,5.25 -0.36728,5.25 -0.18498,-5.25 -0.18498,-5.25 -5.94774,0 -5.94774,0 -0.36728,5.25 -0.36728,5.25 -0.18498,-5.25 -0.18498,-5.25 -4.94774,0 -4.94774,0 -0.36728,5.25 -0.36728,5.25 -0.18498,-5.25 -0.18498,-5.25 -5.5,0 -5.5,0 -0.18498,5.25 -0.18498,5.25 -0.36728,-5.25 -0.36728,-5.25 -5.94774,0 -5.94774,0 -0.18498,5.25 -0.18498,5.25 -0.36728,-5.25 -0.36728,-5.25 -5.44774,0 -5.44774,0 -0.18498,5.25 -0.18498,5.25 -0.36728,-5.25 -0.36728,-5.25 -5.44774,0 -5.44774,0 -0.18498,5.25 -0.18498,5.25 -0.36728,-5.25 -0.36728,-5.25 -5.44774,0 -5.44774,0 -0.18498,5.25 -0.18498,5.25 -0.36728,-5.25 -0.36728,-5.25 -5.94774,0 -5.94774,0 -0.18498,5.25 -0.18498,5.25 -0.36728,-5.25 -0.36728,-5.25 -4.94774,0 -4.94774,0 -0.18498,5.25 -0.18498,5.25 -0.36728,-5.25 -0.36728,-5.25 -5.94774,0 -5.94774,0 -0.18498,5.25 -0.18498,5.25 -0.36728,-5.25 -0.36728,-5.25 -5.94774,0 -5.94774,0 -0.18498,5.25 -0.18498,5.25 -0.36728,-5.25 -0.36728,-5.25 -5.44774,0 -5.44774,0 -0.18498,5.25 -0.18498,5.25 -0.36728,-5.25 -0.36728,-5.25 -4.94774,0 -4.94774,0 -0.18498,5.25 -0.18498,5.25 -0.36728,-5.25 -0.36728,-5.25 -5.94774,0 -5.94774,0 -0.18498,5.25 -0.18498,5.25 -0.36728,-5.25 -0.36728,-5.25 -5.44774,0 -5.44774,0 -0.18498,5.25 -0.18498,5.25 -0.36728,-5.25 -0.36728,-5.25 -5.44774,0 -5.44774,0 -0.18498,5.25 -0.18498,5.25 -0.36728,-5.25 -0.36728,-5.25 -5.44774,0 -5.44774,0 -0.18498,5.25 -0.18498,5.25 -0.36728,-5.25 -0.36728,-5.25 -5.94774,0 -5.94774,0 -0.18498,5.25 -0.18498,5.25 -0.36728,-5.25 -0.36728,-5.25 -4.94774,0 -4.94774,0 -0.18498,5.25 -0.18498,5.25 -0.36728,-5.25 -0.36728,-5.25 -5.94774,0 -5.94774,0 -0.18498,5.25 -0.18498,5.25 -0.36728,-5.25 -0.36728,-5.25 -5.94774,0 -5.94774,0 -0.18498,5.25 -0.18498,5.25 -0.36728,-5.25 -0.36728,-5.25 -5.44774,0 -5.44774,0 -0.18498,5.25 -0.18498,5.25 -0.36728,-5.25 -0.36728,-5.25 -5.44774,0 -5.44774,0 -0.18498,5.25 -0.18498,5.25 -0.36728,-5.25 -0.36728,-5.25 -5.44774,0 -5.44774,0 -0.18498,5.25 -0.18498,5.25 -0.36728,-5.25 -0.36728,-5.25 -5.44774,0 -5.44774,0 -0.18498,5.25 -0.18498,5.25 -0.36728,-5.25 -0.36728,-5.25 -5.94774,0 -5.94774,0 -0.18498,5.25 -0.18498,5.25 -0.36728,-5.25 -0.36728,-5.25 -4.94774,0 -4.94774,0 -0.18498,5.25 -0.18498,5.25 -0.36728,-5.25 -0.36728,-5.25 -5.947739,0 -5.94774,0 -0.18498,5.25 -0.18498,5.25 -0.36728,-5.25 -0.36728,-5.25 -5.44774,0 -5.44774,0 -0.18498,5.25 -0.18498,5.25 -0.36728,-5.25 -0.36728,-5.25 -5.94774,0 -5.94774,0 -0.18498,5.25 -0.18498,5.25 -0.36728,-5.25 -0.36728,-5.25 -4.895478,0 -4.89548,0 -0.36728,5.25 c -0.202,2.8875 -0.37487,-6.675 -0.38415,-21.25 -0.009,-14.575 0.15963,-24.8125 0.37538,-22.75 l 0.39226,3.75 59.939637,0 59.93963,0 0.1681,-3.75 0.16811,-3.75 0.39226,3.75 0.39226,3.75 60.43964,0 60.43963,0 0.1681,-3.75 0.16811,-3.75 0.39226,3.75 0.39226,3.75 60.43964,0 60.43963,0 0.1681,-3.75 0.16811,-3.75 0.39226,3.75 0.39226,3.75 60.87628,0 60.87627,0 0.40332,-3.25 c 0.22183,-1.7875 0.47534,8.5625 0.56336,23 0.088,14.4375 -0.065,26.25 -0.33996,26.25 -0.275,0 -0.5,-2.475 -0.5,-5.5 z m -476.819749,-11.25 0.18025,-4.75 0.37454,4.75 0.37454,4.75 5.94521,0 5.94521,0 0,-7 0,-7 -11.5,0 -11.499998,0 0,7 0,7 5,0 4.999998,0 0.18025,-4.75 z m 25,0 0.18025,-4.75 0.37454,4.75 0.37454,4.75 5.94521,0 5.945209,0 0,-7 0,-7 -11.999999,0 -12,0 0,7 0,7 5.5,0 5.5,0 0.18025,-4.75 z m -8.18025,1.25 c 0,-0.825 0.675,-1.5 1.5,-1.5 0.825,0 1.5,0.675 1.5,1.5 0,0.825 -0.675,1.5 -1.5,1.5 -0.825,0 -1.5,-0.675 -1.5,-1.5 z m 4,0 c 0,-0.825 0.675,-1.5 1.5,-1.5 0.825,0 1.5,0.675 1.5,1.5 0,0.825 -0.675,1.5 -1.5,1.5 -0.825,0 -1.5,-0.675 -1.5,-1.5 z m 28.180249,-1.25 0.18025,-4.75 0.37454,4.75 0.37454,4.75 5.94521,0 5.94521,0 0,-7 0,-7 -11.5,0 -11.5,0 0,7 0,7 5,0 5,0 0.18025,-4.75 z m 25,0 0.18025,-4.75 0.37454,4.75 0.37454,4.75 5.44521,0 5.44521,0 0,-7 0,-7 -11.5,0 -11.5,0 0,7 0,7 5.5,0 5.5,0 0.18025,-4.75 z m 24,0 0.18025,-4.75 0.37454,4.75 0.37454,4.75 5.44521,0 5.44521,0 0,-7 0,-7 -11.5,0 -11.5,0 0,7 0,7 5.5,0 5.5,0 0.18025,-4.75 z m 25,0 0.18025,-4.75 0.37454,4.75 0.37454,4.75 5.94521,0 5.94521,0 0,-7 0,-7 -12.5,0 -12.5,0 0,7 0,7 6,0 6,0 0.18025,-4.75 z m 24,0 0.18025,-4.75 0.37454,4.75 0.37454,4.75 5.94521,0 5.94521,0 0,-7 0,-7 -11.5,0 -11.5,0 0,7 0,7 5,0 5,0 0.18025,-4.75 z m 25,0 0.18025,-4.75 0.37454,4.75 0.37454,4.75 5.44521,0 5.44521,0 0,-7 0,-7 -11.5,0 -11.5,0 0,7 0,7 5.5,0 5.5,0 0.18025,-4.75 z m 24,0 0.18025,-4.75 0.37454,4.75 0.37454,4.75 5.94521,0 5.94521,0 0,-7 0,-7 -12,0 -12,0 0,7 0,7 5.5,0 5.5,0 0.18025,-4.75 z m 24,0 0.18025,-4.75 0.37454,4.75 0.37454,4.75 5.44521,0 5.44521,0 0,-7 0,-7 -11,0 -11,0 0,7 0,7 5,0 5,0 0.18025,-4.75 z m 25,0 0.18025,-4.75 0.37454,4.75 0.37454,4.75 5.94521,0 5.94521,0 0,-7 0,-7 -12.5,0 -12.5,0 0,7 0,7 6,0 6,0 0.18025,-4.75 z m 24,0 0.18025,-4.75 0.37454,4.75 0.37454,4.75 5.94521,0 5.94521,0 0,-7 0,-7 -11.5,0 -11.5,0 0,7 0,7 5,0 5,0 0.18025,-4.75 z m 25,0 0.18025,-4.75 0.37454,4.75 0.37454,4.75 5.44521,0 5.44521,0 0,-7 0,-7 -11.5,0 -11.5,0 0,7 0,7 5.5,0 5.5,0 0.18025,-4.75 z m 24,0 0.18025,-4.75 0.37454,4.75 0.37454,4.75 5.94521,0 5.94521,0 0,-7 0,-7 -12,0 -12,0 0,7 0,7 5.5,0 5.5,0 0.18025,-4.75 z m 25,0 0.18025,-4.75 0.37454,4.75 0.37454,4.75 4.94521,0 4.94521,0 0,-7 0,-7 -11,0 -11,0 0,7 0,7 5.5,0 5.5,0 0.18025,-4.75 z m 24,0 0.18025,-4.75 0.37454,4.75 0.37454,4.75 5.94521,0 5.94521,0 0,-7 0,-7 -12.5,0 -12.5,0 0,7 0,7 6,0 6,0 0.18025,-4.75 z m 25,0 0.18025,-4.75 0.37454,4.75 0.37454,4.75 5.44521,0 5.44521,0 0,-7 0,-7 -11.5,0 -11.5,0 0,7 0,7 5.5,0 5.5,0 0.18025,-4.75 z m 24,0 0.18025,-4.75 0.37454,4.75 0.37454,4.75 5.94521,0 5.94521,0 0,-7 0,-7 -12,0 -12,0 0,7 0,7 5.5,0 5.5,0 0.18025,-4.75 z m 4.81975,-0.75 c 0,-0.825 0.675,-1.5 1.5,-1.5 0.825,0 1.5,0.675 1.5,1.5 0,0.825 -0.675,1.5 -1.5,1.5 -0.825,0 -1.5,-0.675 -1.5,-1.5 z m 4,0 c 0,-0.825 0.675,-1.5 1.5,-1.5 0.825,0 1.5,0.675 1.5,1.5 0,0.825 -0.675,1.5 -1.5,1.5 -0.825,0 -1.5,-0.675 -1.5,-1.5 z m 15.18025,0.75 0.18025,-4.75 0.37454,4.75 0.37454,4.75 5.94521,0 5.94521,0 0,-7 0,-7 -11.5,0 -11.5,0 0,7 0,7 5,0 5,0 0.18025,-4.75 z m 25,0 0.18025,-4.75 0.37454,4.75 0.37454,4.75 5.44521,0 5.44521,0 0,-7 0,-7 -11.5,0 -11.5,0 0,7 0,7 5.5,0 5.5,0 0.18025,-4.75 z m -452.005539,-14.5 0.1747,-4.25 0.3828,4.25 0.38279,4.25 11.885,0 11.884999,0 0.38279,-4.25 0.3828,-4.25 0.1747,4.25 0.17471,4.25 11.5,0 11.5,0 0.17471,-4.25 0.1747,-4.25 0.3828,4.25 0.38279,4.25 11.4425,0 11.4425,0 0.17471,-4.25 0.1747,-4.25 0.3828,4.25 0.38279,4.25 11.4425,0 11.4425,0 0,-9 0,-9 -60,0 -59.999997,0 0,9 0,9 11.499998,0 11.5,0 0.17471,-4.25 z m 3.82529,-1.25 c 0,-0.825 0.675,-1.5 1.5,-1.5 0.825,0 1.5,0.675 1.5,1.5 0,0.825 -0.675,1.5 -1.5,1.5 -0.825,0 -1.5,-0.675 -1.5,-1.5 z m 4,0 c 0,-0.83333 0.88889,-1.5 2,-1.5 1.11111,0 2,0.66667 2,1.5 0,0.83334 -0.88889,1.5 -2,1.5 -1.11111,0 -2,-0.66666 -2,-1.5 z m 5,0 c 0,-0.825 0.675,-1.5 1.5,-1.5 0.825,0 1.5,0.675 1.5,1.5 0,0.825 -0.675,1.5 -1.5,1.5 -0.825,0 -1.5,-0.675 -1.5,-1.5 z m 4,0 c 0,-0.825 0.675,-1.5 1.5,-1.5 0.825,0 1.5,0.675 1.5,1.5 0,0.825 -0.675,1.5 -1.5,1.5 -0.825,0 -1.5,-0.675 -1.5,-1.5 z m 4,0 c 0,-0.825 0.675,-1.5 1.5,-1.5 0.824999,0 1.499999,0.675 1.499999,1.5 0,0.825 -0.675,1.5 -1.499999,1.5 -0.825,0 -1.5,-0.675 -1.5,-1.5 z m 102.174709,1.25 0.1747,-4.25 0.3828,4.25 0.38279,4.25 11.385,0 11.385,0 0.38279,-4.25 0.3828,-4.25 0.1747,4.25 0.17471,4.25 11.5,0 11.5,0 0.17471,-4.25 0.1747,-4.25 0.3828,4.25 0.38279,4.25 11.9425,0 11.9425,0 0.17471,-4.25 0.1747,-4.25 0.3828,4.25 0.38279,4.25 10.9425,0 10.9425,0 0,-9 0,-9 -60.5,0 -60.5,0 0,9 0,9 12.5,0 12.5,0 0.17471,-4.25 z m 122,0 0.1747,-4.25 0.3828,4.25 0.38279,4.25 11.385,0 11.385,0 0.38279,-4.25 0.3828,-4.25 0.1747,4.25 0.17471,4.25 11.5,0 11.5,0 0.17471,-4.25 0.1747,-4.25 0.3828,4.25 0.38279,4.25 11.9425,0 11.9425,0 0.17471,-4.25 0.1747,-4.25 0.3828,4.25 0.38279,4.25 10.9425,0 10.9425,0 0,-9 0,-9 -60.5,0 -60.5,0 0,9 0,9 12.5,0 12.5,0 0.17471,-4.25 z m 122,0 0.1747,-4.25 0.3828,4.25 0.38279,4.25 11.385,0 11.385,0 0.38279,-4.25 0.3828,-4.25 0.1747,4.25 0.17471,4.25 12,0 12,0 0.17471,-4.25 0.1747,-4.25 0.3828,4.25 0.38279,4.25 11.4425,0 11.4425,0 0.17471,-4.25 0.1747,-4.25 0.3828,4.25 0.38279,4.25 11.4425,0 11.4425,0 0,-9 0,-9 -61,0 -61,0 0,9 0,9 12.5,0 12.5,0 0.17471,-4.25 z m 40.82529,-3.25 c 0,-0.825 0.675,-1.5 1.5,-1.5 0.825,0 1.5,0.675 1.5,1.5 0,0.825 -0.675,1.5 -1.5,1.5 -0.825,0 -1.5,-0.675 -1.5,-1.5 z m 4,0 c 0,-0.825 0.675,-1.5 1.5,-1.5 0.825,0 1.5,0.675 1.5,1.5 0,0.825 -0.675,1.5 -1.5,1.5 -0.825,0 -1.5,-0.675 -1.5,-1.5 z m -406.999999,-16 c 0,-0.825 0.675,-1.5 1.5,-1.5 0.825,0 1.5,0.675 1.5,1.5 0,0.825 -0.675,1.5 -1.5,1.5 -0.825,0 -1.5,-0.675 -1.5,-1.5 z m 4,0 c 0,-0.825 0.675,-1.5 1.5,-1.5 0.825,0 1.5,0.675 1.5,1.5 0,0.825 -0.675,1.5 -1.5,1.5 -0.825,0 -1.5,-0.675 -1.5,-1.5 z m 4,0 c 0,-0.825 0.675,-1.5 1.5,-1.5 0.825,0 1.5,0.675 1.5,1.5 0,0.825 -0.675,1.5 -1.5,1.5 -0.825,0 -1.5,-0.675 -1.5,-1.5 z m 4,0 c 0,-0.825 0.675,-1.5 1.5,-1.5 0.825,0 1.5,0.675 1.5,1.5 0,0.825 -0.675,1.5 -1.5,1.5 -0.825,0 -1.5,-0.675 -1.5,-1.5 z m 4,0 c 0,-0.825 0.675,-1.5 1.5,-1.5 0.824999,0 1.499999,0.675 1.499999,1.5 0,0.825 -0.675,1.5 -1.499999,1.5 -0.825,0 -1.5,-0.675 -1.5,-1.5 z m 3.999999,0 c 0,-0.825 0.675,-1.5 1.5,-1.5 0.825,0 1.5,0.675 1.5,1.5 0,0.825 -0.675,1.5 -1.5,1.5 -0.825,0 -1.5,-0.675 -1.5,-1.5 z m 4,0 c 0,-0.825 0.675,-1.5 1.5,-1.5 0.825,0 1.5,0.675 1.5,1.5 0,0.825 -0.675,1.5 -1.5,1.5 -0.825,0 -1.5,-0.675 -1.5,-1.5 z m 4,0 c 0,-0.825 0.675,-1.5 1.5,-1.5 0.825,0 1.5,0.675 1.5,1.5 0,0.825 -0.675,1.5 -1.5,1.5 -0.825,0 -1.5,-0.675 -1.5,-1.5 z m 4,0 c 0,-0.825 0.675,-1.5 1.5,-1.5 0.825,0 1.5,0.675 1.5,1.5 0,0.825 -0.675,1.5 -1.5,1.5 -0.825,0 -1.5,-0.675 -1.5,-1.5 z m 4,0 c 0,-0.825 0.675,-1.5 1.5,-1.5 0.825,0 1.5,0.675 1.5,1.5 0,0.825 -0.675,1.5 -1.5,1.5 -0.825,0 -1.5,-0.675 -1.5,-1.5 z m 4,0 c 0,-0.825 0.675,-1.5 1.5,-1.5 0.825,0 1.5,0.675 1.5,1.5 0,0.825 -0.675,1.5 -1.5,1.5 -0.825,0 -1.5,-0.675 -1.5,-1.5 z m 4,0 c 0,-0.825 0.675,-1.5 1.5,-1.5 0.825,0 1.5,0.675 1.5,1.5 0,0.825 -0.675,1.5 -1.5,1.5 -0.825,0 -1.5,-0.675 -1.5,-1.5 z m 4,0 c 0,-0.825 0.675,-1.5 1.5,-1.5 0.825,0 1.5,0.675 1.5,1.5 0,0.825 -0.675,1.5 -1.5,1.5 -0.825,0 -1.5,-0.675 -1.5,-1.5 z m 4,0 c 0,-0.825 0.675,-1.5 1.5,-1.5 0.825,0 1.5,0.675 1.5,1.5 0,0.825 -0.675,1.5 -1.5,1.5 -0.825,0 -1.5,-0.675 -1.5,-1.5 z m 4,0 c 0,-0.825 0.675,-1.5 1.5,-1.5 0.825,0 1.5,0.675 1.5,1.5 0,0.825 -0.675,1.5 -1.5,1.5 -0.825,0 -1.5,-0.675 -1.5,-1.5 z m 4,0 c 0,-0.825 0.675,-1.5 1.5,-1.5 0.825,0 1.5,0.675 1.5,1.5 0,0.825 -0.675,1.5 -1.5,1.5 -0.825,0 -1.5,-0.675 -1.5,-1.5 z m 4,0 c 0,-0.825 0.675,-1.5 1.5,-1.5 0.825,0 1.5,0.675 1.5,1.5 0,0.825 -0.675,1.5 -1.5,1.5 -0.825,0 -1.5,-0.675 -1.5,-1.5 z m 4,0 c 0,-0.825 0.675,-1.5 1.5,-1.5 0.825,0 1.5,0.675 1.5,1.5 0,0.825 -0.675,1.5 -1.5,1.5 -0.825,0 -1.5,-0.675 -1.5,-1.5 z m 4,0 c 0,-0.825 0.675,-1.5 1.5,-1.5 0.825,0 1.5,0.675 1.5,1.5 0,0.825 -0.675,1.5 -1.5,1.5 -0.825,0 -1.5,-0.675 -1.5,-1.5 z m 4,0 c 0,-0.825 0.675,-1.5 1.5,-1.5 0.825,0 1.5,0.675 1.5,1.5 0,0.825 -0.675,1.5 -1.5,1.5 -0.825,0 -1.5,-0.675 -1.5,-1.5 z m 4,0 c 0,-0.825 0.675,-1.5 1.5,-1.5 0.825,0 1.5,0.675 1.5,1.5 0,0.825 -0.675,1.5 -1.5,1.5 -0.825,0 -1.5,-0.675 -1.5,-1.5 z m 4,0 c 0,-0.825 0.675,-1.5 1.5,-1.5 0.825,0 1.5,0.675 1.5,1.5 0,0.825 -0.675,1.5 -1.5,1.5 -0.825,0 -1.5,-0.675 -1.5,-1.5 z m 4,0 c 0,-0.825 0.675,-1.5 1.5,-1.5 0.825,0 1.5,0.675 1.5,1.5 0,0.825 -0.675,1.5 -1.5,1.5 -0.825,0 -1.5,-0.675 -1.5,-1.5 z m 315,-2 c 0,-0.825 0.675,-1.5 1.5,-1.5 0.825,0 1.5,0.675 1.5,1.5 0,0.825 -0.675,1.5 -1.5,1.5 -0.825,0 -1.5,-0.675 -1.5,-1.5 z m 4,0 c 0,-0.825 0.675,-1.5 1.5,-1.5 0.825,0 1.5,0.675 1.5,1.5 0,0.825 -0.675,1.5 -1.5,1.5 -0.825,0 -1.5,-0.675 -1.5,-1.5 z m 4,0 c 0,-0.825 0.675,-1.5 1.5,-1.5 0.825,0 1.5,0.675 1.5,1.5 0,0.825 -0.675,1.5 -1.5,1.5 -0.825,0 -1.5,-0.675 -1.5,-1.5 z m 4,0 c 0,-0.825 0.675,-1.5 1.5,-1.5 0.825,0 1.5,0.675 1.5,1.5 0,0.825 -0.675,1.5 -1.5,1.5 -0.825,0 -1.5,-0.675 -1.5,-1.5 z m 4,0 c 0,-0.825 0.675,-1.5 1.5,-1.5 0.825,0 1.5,0.675 1.5,1.5 0,0.825 -0.675,1.5 -1.5,1.5 -0.825,0 -1.5,-0.675 -1.5,-1.5 z m 4,0 c 0,-0.825 0.675,-1.5 1.5,-1.5 0.825,0 1.5,0.675 1.5,1.5 0,0.825 -0.675,1.5 -1.5,1.5 -0.825,0 -1.5,-0.675 -1.5,-1.5 z m 4,0 c 0,-0.825 0.675,-1.5 1.5,-1.5 0.825,0 1.5,0.675 1.5,1.5 0,0.825 -0.675,1.5 -1.5,1.5 -0.825,0 -1.5,-0.675 -1.5,-1.5 z m 4,0 c 0,-0.825 0.675,-1.5 1.5,-1.5 0.825,0 1.5,0.675 1.5,1.5 0,0.825 -0.675,1.5 -1.5,1.5 -0.825,0 -1.5,-0.675 -1.5,-1.5 z m 4,0 c 0,-0.825 0.675,-1.5 1.5,-1.5 0.825,0 1.5,0.675 1.5,1.5 0,0.825 -0.675,1.5 -1.5,1.5 -0.825,0 -1.5,-0.675 -1.5,-1.5 z m 4,0 c 0,-0.825 0.675,-1.5 1.5,-1.5 0.825,0 1.5,0.675 1.5,1.5 0,0.825 -0.675,1.5 -1.5,1.5 -0.825,0 -1.5,-0.675 -1.5,-1.5 z m 4,0 c 0,-0.825 0.675,-1.5 1.5,-1.5 0.825,0 1.5,0.675 1.5,1.5 0,0.825 -0.675,1.5 -1.5,1.5 -0.825,0 -1.5,-0.675 -1.5,-1.5 z m 4,0 c 0,-0.825 0.675,-1.5 1.5,-1.5 0.825,0 1.5,0.675 1.5,1.5 0,0.825 -0.675,1.5 -1.5,1.5 -0.825,0 -1.5,-0.675 -1.5,-1.5 z m 4,0 c 0,-0.825 0.675,-1.5 1.5,-1.5 0.825,0 1.5,0.675 1.5,1.5 0,0.825 -0.675,1.5 -1.5,1.5 -0.825,0 -1.5,-0.675 -1.5,-1.5 z m 4,0 c 0,-0.825 0.675,-1.5 1.5,-1.5 0.825,0 1.5,0.675 1.5,1.5 0,0.825 -0.675,1.5 -1.5,1.5 -0.825,0 -1.5,-0.675 -1.5,-1.5 z m -453.999999,-19 c 0,-1.32838 23.111109,-1.5 201.999999,-1.5 178.88889,0 202,0.17162 202,1.5 0,1.32839 -23.11111,1.5 -202,1.5 -178.88889,0 -201.999999,-0.17161 -201.999999,-1.5 z"
     id="path3108"
     inkscape:connector-curvature="0" />
  <text
     xml:space="preserve"
     style="font-size:24px;font-style:normal;font-variant:normal;font-weight:normal;font-stretch:normal;text-align:start;line-height:125%;letter-spacing:0px;word-spacing:0px;writing-mode:lr-tb;text-anchor:start;fill:#000000;fill-opacity:1;stroke:none;font-family:Linux Biolinum O;-inkscape-font-specification:Linux Biolinum O"
     x="254.70468"
     y="15.552"
     id="text3110"
     sodipodi:linespacing="125%"><tspan
       sodipodi:role="line"
       id="tspan3112"
       x="254.70468"
       y="15.552">Fixation</tspan></text>
  <text
     xml:space="preserve"
     style="font-size:18px;font-style:normal;font-variant:normal;font-weight:normal;font-stretch:normal;text-align:start;line-height:125%;letter-spacing:0px;word-spacing:0px;writing-mode:lr-tb;text-anchor:start;fill:#000000;fill-opacity:1;stroke:none;font-family:Linux Biolinum O;-inkscape-font-specification:Linux Biolinum O"
     x="7.7312851"
     y="56.414867"
     id="text3114"
     sodipodi:linespacing="125%"><tspan
       sodipodi:role="line"
       id="tspan3116"
       x="7.7312851"
       y="56.414867">50 Hz</tspan></text>
  <text
     xml:space="preserve"
     style="font-size:18px;font-style:normal;font-variant:normal;font-weight:normal;font-stretch:normal;text-align:start;line-height:125%;letter-spacing:0px;word-spacing:0px;writing-mode:lr-tb;text-anchor:start;fill:#000000;fill-opacity:1;stroke:none;font-family:Linux Biolinum O;-inkscape-font-specification:Linux Biolinum O"
     x="-0.57599998"
     y="74.601089"
     id="text3118"
     sodipodi:linespacing="125%"><tspan
       sodipodi:role="line"
       id="tspan3120"
       x="-0.57599998"
       y="74.601089">250 Hz</tspan></text>
  <text
     xml:space="preserve"
     style="font-size:18px;font-style:normal;font-variant:normal;font-weight:normal;font-stretch:normal;text-align:start;line-height:125%;letter-spacing:0px;word-spacing:0px;writing-mode:lr-tb;text-anchor:start;fill:#000000;fill-opacity:1;stroke:none;font-family:Linux Biolinum O;-inkscape-font-specification:Linux Biolinum O"
     x="-0.80052543"
     y="90.99115"
     id="text3122"
     sodipodi:linespacing="125%"><tspan
       sodipodi:role="line"
       id="tspan3124"
       x="-0.80052543"
       y="90.99115">500 Hz</tspan><tspan
       sodipodi:role="line"
       x="-0.80052543"
       y="113.49115"
       id="tspan3126" /></text>
  <path
     style="fill:none;stroke:#000000;stroke-width:1px;stroke-linecap:butt;stroke-linejoin:miter;stroke-opacity:1;marker-start:none;marker-end:url(#Arrow1Lstart)"
     d="m 53.824043,106.74729 520.734467,-0.63505 -0.63505,0"
     id="path3128"
     inkscape:connector-curvature="0" />
</svg>
