<?xml version="1.0" encoding="UTF-8" standalone="no"?>
<!-- Created with Inkscape (http://www.inkscape.org/) -->

<svg
   xmlns:dc="http://purl.org/dc/elements/1.1/"
   xmlns:cc="http://creativecommons.org/ns#"
   xmlns:rdf="http://www.w3.org/1999/02/22-rdf-syntax-ns#"
   xmlns:svg="http://www.w3.org/2000/svg"
   xmlns="http://www.w3.org/2000/svg"
   xmlns:xlink="http://www.w3.org/1999/xlink"
   xmlns:sodipodi="http://sodipodi.sourceforge.net/DTD/sodipodi-0.dtd"
   xmlns:inkscape="http://www.inkscape.org/namespaces/inkscape"
   id="svg2"
   version="1.1"
   inkscape:version="0.48.3.1 r9886"
   width="709"
   height="419"
   sodipodi:docname="Roesener6.svg">
  <metadata
     id="metadata8">
    <rdf:RDF>
      <cc:Work
         rdf:about="">
        <dc:format>image/svg+xml</dc:format>
        <dc:type
           rdf:resource="http://purl.org/dc/dcmitype/StillImage" />
        <dc:title></dc:title>
      </cc:Work>
    </rdf:RDF>
  </metadata>
  <defs
     id="defs6">
    <marker
       inkscape:stockid="Arrow1Lstart"
       orient="auto"
       refY="0.0"
       refX="0.0"
       id="Arrow1Lstart"
       style="overflow:visible">
      <path
         id="path3938"
         d="M 0.0,0.0 L 5.0,-5.0 L -12.5,0.0 L 5.0,5.0 L 0.0,0.0 z "
         style="fill-rule:evenodd;stroke:#000000;stroke-width:1.0pt"
         transform="scale(0.8) translate(12.5,0)" />
    </marker>
    <marker
       inkscape:stockid="Arrow2Lend"
       orient="auto"
       refY="0.0"
       refX="0.0"
       id="Arrow2Lend"
       style="overflow:visible;">
      <path
         id="path3959"
         style="fill-rule:evenodd;stroke-width:0.62500000;stroke-linejoin:round;"
         d="M 8.7185878,4.0337352 L -2.2072895,0.016013256 L 8.7185884,-4.0017078 C 6.9730900,-1.6296469 6.9831476,1.6157441 8.7185878,4.0337352 z "
         transform="scale(1.1) rotate(180) translate(1,0)" />
    </marker>
    <marker
       inkscape:stockid="Arrow2Lend"
       orient="auto"
       refY="0"
       refX="0"
       id="Arrow2Lend-3"
       style="overflow:visible">
      <path
         inkscape:connector-curvature="0"
         id="path3959-5"
         style="fill-rule:evenodd;stroke-width:0.625;stroke-linejoin:round"
         d="M 8.7185878,4.0337352 -2.2072895,0.01601326 8.7185884,-4.0017078 c -1.7454984,2.3720609 -1.7354408,5.6174519 -6e-7,8.035443 z"
         transform="matrix(-1.1,0,0,-1.1,-1.1,0)" />
    </marker>
    <marker
       inkscape:stockid="Arrow2Lend"
       orient="auto"
       refY="0"
       refX="0"
       id="marker5375"
       style="overflow:visible">
      <path
         inkscape:connector-curvature="0"
         id="path5377"
         style="fill-rule:evenodd;stroke-width:0.625;stroke-linejoin:round"
         d="M 8.7185878,4.0337352 -2.2072895,0.01601326 8.7185884,-4.0017078 c -1.7454984,2.3720609 -1.7354408,5.6174519 -6e-7,8.035443 z"
         transform="matrix(-1.1,0,0,-1.1,-1.1,0)" />
    </marker>
    <marker
       inkscape:stockid="Arrow2Lend"
       orient="auto"
       refY="0"
       refX="0"
       id="marker5379"
       style="overflow:visible">
      <path
         inkscape:connector-curvature="0"
         id="path5381"
         style="fill-rule:evenodd;stroke-width:0.625;stroke-linejoin:round"
         d="M 8.7185878,4.0337352 -2.2072895,0.01601326 8.7185884,-4.0017078 c -1.7454984,2.3720609 -1.7354408,5.6174519 -6e-7,8.035443 z"
         transform="matrix(-1.1,0,0,-1.1,-1.1,0)" />
    </marker>
    <marker
       inkscape:stockid="Arrow2Lend"
       orient="auto"
       refY="0"
       refX="0"
       id="marker5383"
       style="overflow:visible">
      <path
         inkscape:connector-curvature="0"
         id="path5385"
         style="fill-rule:evenodd;stroke-width:0.625;stroke-linejoin:round"
         d="M 8.7185878,4.0337352 -2.2072895,0.01601326 8.7185884,-4.0017078 c -1.7454984,2.3720609 -1.7354408,5.6174519 -6e-7,8.035443 z"
         transform="matrix(-1.1,0,0,-1.1,-1.1,0)" />
    </marker>
    <marker
       inkscape:stockid="Arrow2Lend"
       orient="auto"
       refY="0"
       refX="0"
       id="marker5387"
       style="overflow:visible">
      <path
         inkscape:connector-curvature="0"
         id="path5389"
         style="fill-rule:evenodd;stroke-width:0.625;stroke-linejoin:round"
         d="M 8.7185878,4.0337352 -2.2072895,0.01601326 8.7185884,-4.0017078 c -1.7454984,2.3720609 -1.7354408,5.6174519 -6e-7,8.035443 z"
         transform="matrix(-1.1,0,0,-1.1,-1.1,0)" />
    </marker>
    <marker
       inkscape:stockid="Arrow2Lend"
       orient="auto"
       refY="0"
       refX="0"
       id="Arrow2Lend-2"
       style="overflow:visible">
      <path
         inkscape:connector-curvature="0"
         id="path3959-7"
         style="fill-rule:evenodd;stroke-width:0.625;stroke-linejoin:round"
         d="M 8.7185878,4.0337352 -2.2072895,0.01601326 8.7185884,-4.0017078 c -1.7454984,2.3720609 -1.7354408,5.6174519 -6e-7,8.035443 z"
         transform="matrix(-1.1,0,0,-1.1,-1.1,0)" />
    </marker>
    <marker
       inkscape:stockid="Arrow2Lend"
       orient="auto"
       refY="0"
       refX="0"
       id="marker5471"
       style="overflow:visible">
      <path
         inkscape:connector-curvature="0"
         id="path5473"
         style="fill-rule:evenodd;stroke-width:0.625;stroke-linejoin:round"
         d="M 8.7185878,4.0337352 -2.2072895,0.01601326 8.7185884,-4.0017078 c -1.7454984,2.3720609 -1.7354408,5.6174519 -6e-7,8.035443 z"
         transform="matrix(-1.1,0,0,-1.1,-1.1,0)" />
    </marker>
    <marker
       inkscape:stockid="Arrow2Lend"
       orient="auto"
       refY="0"
       refX="0"
       id="marker5475"
       style="overflow:visible">
      <path
         inkscape:connector-curvature="0"
         id="path5477"
         style="fill-rule:evenodd;stroke-width:0.625;stroke-linejoin:round"
         d="M 8.7185878,4.0337352 -2.2072895,0.01601326 8.7185884,-4.0017078 c -1.7454984,2.3720609 -1.7354408,5.6174519 -6e-7,8.035443 z"
         transform="matrix(-1.1,0,0,-1.1,-1.1,0)" />
    </marker>
    <marker
       inkscape:stockid="Arrow2Lend"
       orient="auto"
       refY="0"
       refX="0"
       id="marker5479"
       style="overflow:visible">
      <path
         inkscape:connector-curvature="0"
         id="path5481"
         style="fill-rule:evenodd;stroke-width:0.625;stroke-linejoin:round"
         d="M 8.7185878,4.0337352 -2.2072895,0.01601326 8.7185884,-4.0017078 c -1.7454984,2.3720609 -1.7354408,5.6174519 -6e-7,8.035443 z"
         transform="matrix(-1.1,0,0,-1.1,-1.1,0)" />
    </marker>
    <marker
       inkscape:stockid="Arrow2Lend"
       orient="auto"
       refY="0"
       refX="0"
       id="marker5483"
       style="overflow:visible">
      <path
         inkscape:connector-curvature="0"
         id="path5485"
         style="fill-rule:evenodd;stroke-width:0.625;stroke-linejoin:round"
         d="M 8.7185878,4.0337352 -2.2072895,0.01601326 8.7185884,-4.0017078 c -1.7454984,2.3720609 -1.7354408,5.6174519 -6e-7,8.035443 z"
         transform="matrix(-1.1,0,0,-1.1,-1.1,0)" />
    </marker>
    <marker
       inkscape:stockid="Arrow2Lend"
       orient="auto"
       refY="0"
       refX="0"
       id="marker5487"
       style="overflow:visible">
      <path
         inkscape:connector-curvature="0"
         id="path5489"
         style="fill-rule:evenodd;stroke-width:0.625;stroke-linejoin:round"
         d="M 8.7185878,4.0337352 -2.2072895,0.01601326 8.7185884,-4.0017078 c -1.7454984,2.3720609 -1.7354408,5.6174519 -6e-7,8.035443 z"
         transform="matrix(-1.1,0,0,-1.1,-1.1,0)" />
    </marker>
  </defs>
  <sodipodi:namedview
     pagecolor="#ffffff"
     bordercolor="#666666"
     borderopacity="1"
     objecttolerance="10"
     gridtolerance="10"
     guidetolerance="10"
     inkscape:pageopacity="0"
     inkscape:pageshadow="2"
     inkscape:window-width="1680"
     inkscape:window-height="1022"
     id="namedview4"
     showgrid="false"
     inkscape:zoom="1.1308784"
     inkscape:cx="546.90284"
     inkscape:cy="291.74089"
     inkscape:window-x="1680"
     inkscape:window-y="0"
     inkscape:window-maximized="1"
     inkscape:current-layer="layer5" />
  <g
     inkscape:groupmode="layer"
     id="layer3"
     inkscape:label="orig"
     style="opacity:0.42176867;display:none">
    <path
       style="fill:none;stroke:#000000;stroke-width:1px;stroke-linecap:butt;stroke-linejoin:miter;stroke-opacity:1"
       d="M 590.88218,348.34425 C 371.41166,207.65801 371.41166,207.65801 371.41166,207.65801"
       id="path4756"
       inkscape:connector-curvature="0" />
    <image
       style="opacity:0.34693879;display:inline"
       y="1.909647"
       x="-3.0970447"
       id="image10"
       height="419"
       width="709"
       xlink:href="/home/snordhoff/versioning/git/langsci/books/ICEAL/4545727dfzwjz/figures/Roesener6.png" />
  </g>
  <g
     inkscape:groupmode="layer"
     id="layer1"
     inkscape:label="Layer"
     style="display:inline">
    <path
       style="fill:#000000"
       d="M 112.87026,195.93174 112.29822,78.160185 c 47.01085,-2.743384 76.6212,-0.204548 113.39666,-0.27854 l 102.95862,-0.22146 c 146.84073,-3.105084 94.89919,0.441811 197.96775,-0.339784 l 86.50207,-0.138793 c 3.08586,53.193852 0.61442,109.579902 0.71572,149.478612 l 0.53637,89.5 -36.86096,0.1946 c -20.27352,0.10703 -65.32345,0.10346 -100.11095,-0.008 -22.85654,-5.3087 -58.21537,8.44623 -65.75,-0.20471 l -26.17668,0.009 c -44.26478,3.3436 -62.4992,0.401 -94.57332,0.59485 -41.41174,0.44675 -88.83999,0.34305 -123.72962,0.32136 -32.97352,-0.0199 -53.70664,-0.3996 -54.07168,-0.99025 -1.39123,0.27611 0.42271,-90.78356 -0.23194,-120.14533 z m 151.0199,117.22843 0.52956,-3.94817 c 0.29126,-2.1715 1.80408,-5.72127 3.36183,-7.88837 2.68486,-3.73514 8.01814,-8.16346 9.83171,-8.16346 0.4598,0 -0.65127,1.0125 -2.46905,2.25 -5.1444,3.50218 -9.08584,9.04032 -9.7017,13.63194 l -0.55235,4.11807 23.28666,0 23.28666,0 -1.90499,-2.1697 c -1.90295,-2.16738 -1.9017,-2.16732 1.16163,0.0525 2.53534,1.8372 4.14385,2.16978 9.28461,1.91971 l 6.218,-0.30248 -0.0185,-63.5 c -0.0102,-34.925 -0.0352,-87.0125 -0.0557,-115.75 l -0.0371,-52.250025 -100.97897,0 c -49.81761,1.21412 -81.0576,-1.235723 -109.47897,0.5 l 0.18061,28.499995 c 0.0993,15.675 0.23103,45.9375 0.29266,67.25 -0.55943,38.35833 -0.20067,41.5495 0.26674,86.54497 -2.57384,18.35035 0.90006,-39.75378 0.21847,49.33018 0.30208,0.30207 20.00999,0.37895 43.79537,0.17083 34.49435,-0.35401 68.98769,-0.34318 103.48282,-0.29599 z m 38.22557,-8.07214 -3.46223,-3.07216 3.75,2.69085 c 3.31388,2.3779 4.39217,3.45346 3.46223,3.45346 -0.15828,0 -1.84578,-1.38247 -3.75,-3.07215 z M 291.608,296.72194 c -2.77502,-2.41419 -6.37502,-4.58579 -8,-4.82577 l -2.9545,-0.43633 3,-0.118 c 2.27684,-0.0896 4.32579,1.07192 8.5,4.81834 3.025,2.71499 5.275,4.93969 5,4.94378 -0.275,0.004 -2.77047,-1.96782 -5.5455,-4.38202 z m -70.5129,-9.48978 c -4.86915,-1.51595 -6.94376,-3.15589 -8.93833,-7.06558 -2.12819,-4.17158 -2.66676,-9.0064 -1.00327,-9.0064 0.55,0 1,1.37235 1,3.04966 0,9.60048 11.28887,15.44115 19.09766,9.8808 3.50585,-2.49639 4.75796,-4.68426 5.85286,-10.227 l 0.83035,-4.20346 0.10956,3.5156 c 0.27424,8.79936 -9.03531,16.52015 -16.94883,14.05638 z m -50.38411,-16.01361 -4.8859,-4.96049 7.14948,-7.26367 c 5.60886,-5.69844 7.41123,-7.00191 8.3642,-6.04894 1.74995,1.74995 2.63088,1.50258 2.99518,-0.84102 0.27846,-1.79141 0.8982,-1.45359 4.81955,2.62708 4.2588,4.43184 4.3526,4.6482 1.75,4.0367 -3.04663,-0.71583 -3.26998,-0.41351 -1.63208,2.20919 0.95415,1.52782 0.13681,2.73451 -5.57884,8.23643 -3.68322,3.54549 -7.01152,6.5631 -7.39623,6.70578 -0.3847,0.14269 -2.89811,-1.97279 -5.58536,-4.70106 z m 52.18615,-41.07877 c -7.22878,-7.573 -12.81474,-12.67358 -13.1989,-12.052 -0.98516,1.59403 -9.07251,5.0724 -11.79353,5.0724 -1.29719,0 -4.6132,-1.12355 -7.36892,-2.49679 -9.51172,-4.73989 -12.65088,-15.96565 -6.89628,-24.66144 l 2.71631,-4.10461 -10.28414,-10.31926 -10.28414,-10.31925 4.89927,-5.29933 c 2.69459,-2.91462 12.14621,-12.84874 21.0036,-22.0758 l 16.10434,-16.77649 21.42938,22.1649 c 11.78615,12.19069 25.51404,26.26511 30.50641,31.27648 4.99237,5.01138 11.23584,11.46809 13.87438,14.34827 l 4.79734,5.23667 -17.81021,18.00498 c -9.79561,9.90274 -18.07124,18.34624 -18.39028,18.76333 -0.31905,0.41709 -1.97321,2.02043 -3.67592,3.56297 l -3.09584,2.80464 z M 269.29778,192.338 c -3.81562,-4.2228 -9.34652,-9.97782 -12.29088,-12.78893 -2.94437,-2.81112 -15.20396,-15.30563 -27.24354,-27.76559 L 207.87321,129.12902 192.7266,144.8946 c -8.33064,8.67107 -17.32638,18.12512 -19.99054,21.00899 l -4.84392,5.24341 22.88068,23.62949 c 12.58437,12.99622 27.83011,28.79664 33.87941,35.11205 l 10.99873,11.48255 20.29215,-20.67763 20.29215,-20.67763 z m -67.39428,9.00942 c -5.3625,-5.34158 -9.75,-10.02563 -9.75,-10.409 0,-0.38337 3.32083,-4.03949 7.37963,-8.12472 l 7.37962,-7.42768 10.5316,10.63708 10.5316,10.63708 -7.53838,7 c -4.14611,3.85 -7.81866,7.08982 -8.16123,7.1996 -0.34256,0.10979 -5.01034,-4.17078 -10.37284,-9.51236 z m -18.06916,-22.77247 c -4.19924,-4.0001 -5.53481,-5.87328 -4.79772,-6.72898 0.56179,-0.65218 3.76018,-4.08902 7.10754,-7.63741 l 6.0861,-6.45162 6.19318,6.19318 6.19318,6.19318 -6.95474,7.00844 c -3.82511,3.85464 -7.19181,6.99898 -7.48156,6.98742 -0.28975,-0.0116 -3.14544,-2.51546 -6.34598,-5.56421 z m 12.82091,-2.41654 5.93915,-6.00177 -2.14715,-2.14715 -2.14714,-2.14715 -6.60596,5.79971 -6.60596,5.79971 2.20697,2.34921 c 1.21383,1.29207 2.48011,2.34921 2.81396,2.34921 0.33384,0 3.2796,-2.7008 6.54613,-6.00177 z m -5.53769,-5.36558 c 5.86633,-5.61175 6.0593,-5.94936 4.42974,-7.75 -0.93708,-1.03546 -2.21062,-1.88265 -2.83009,-1.88265 -0.61947,0 -3.78317,2.68487 -7.03043,5.96637 -5.83054,5.89202 -5.88091,5.99202 -4.04169,8.02433 1.02433,1.13188 2.19464,1.93451 2.60069,1.78363 0.40605,-0.15088 3.49835,-2.91464 6.87178,-6.14168 z m 14.8593,48.3337 c 1.82785,-1.1144 3.17785,-2.41505 3,-2.89034 -0.62089,-1.65928 -20.80511,-22.07601 -21.8246,-22.07601 -2.05906,0 -4.99134,6.4788 -4.97857,11 0.0348,12.32981 13.51467,20.23901 23.80317,13.96635 z M 153.51904,161.45 c -0.48969,-1.87258 -0.84391,-2.01109 -2.51778,-0.98449 -1.73218,1.06236 -2.66221,0.42408 -8.39783,-5.76351 -3.54746,-3.827 -6.44993,-7.21892 -6.44993,-7.53759 0,-0.31868 2.1375,-2.66394 4.75,-5.21169 l 4.75,-4.63227 7.5,7.00185 c 4.50417,4.20501 7.0007,7.20212 6.25,7.5032 -1.96033,0.78624 -1.46291,2.33468 0.75,2.33468 2.90305,0 2.49493,1.11082 -2.0323,5.53154 -3.82637,3.73635 -4.0614,3.82614 -4.60216,1.75828 z M 140.9035,134.14221 c -93.935667,189.90519 -46.967833,94.9526 0,0 z m 156.75,-27.98203 -3.9059,-4 2.70295,0 c 2.89732,0 3.40268,-0.90026 1.54705,-2.7559 -0.87454,-0.87454 0.38345,-2.809692 5.16811,-7.95 3.47821,-3.736752 6.6007,-6.91154 6.93887,-7.055083 0.33817,-0.143543 3.07501,2.016187 6.08188,4.799401 l 5.46704,5.060389 -7.5,6.853493 c -6.92841,6.33117 -7.63337,6.73475 -9.25,5.2956 -1.61842,-1.44074 -1.75,-1.35826 -1.75,1.09711 0,3.57955 -0.90816,3.35746 -5.5,-1.34501 z m 86.04969,207 c 19.66892,-2.3 37.46524,-0.14512 53.41077,-0.0504 l 25.46046,0.12742 -2.46046,-2.7115 -2.46046,-2.71149 3.59439,2.67301 c 3.34282,2.48593 4.30519,2.67302 13.75,2.67302 l 10.15561,-4e-5 C 480.85022,114.37924 487.36252,106.96058 484.39372,84.343745 L 483.9356,81.222167 C 352.97265,76.758239 461.57619,81.989912 332.24688,80.961133 l -2.40663,0.494488 0.65058,69.102279 c 0.35781,38.00625 0.6533,90.13978 0.65662,115.85228 l 0.006,46.75 12.5,0 c 18.475,-3.6151 24.56257,-0.005 40.04974,0 z m 32.46562,-4.08333 c 0.008,-1.32917 0.4578,-3.09167 0.99861,-3.91667 0.69179,-1.05532 0.79289,-0.46242 0.34104,2 -0.79139,4.31279 -1.35998,5.12629 -1.33965,1.91667 z m 36.48469,-4.56597 c -3.01149,-2.69092 -3.23667,-3.06387 -0.91119,-1.50913 2.76441,1.84818 6.24067,5.21736 5.28363,5.12088 -0.20484,-0.0206 -2.17244,-1.64594 -4.37244,-3.61175 z m -117.5,1.57688 0,-11.32028 c 0,-6.22615 -0.25451,-55.48485 -0.56557,-109.46379 l -0.56556,-98.143505 17.06556,0 17.06557,0 0.11515,8.75 c 0.56345,4.837145 -0.804,10.215105 0.3227,14.858345 0.49861,1.98662 1.23211,2.39228 4.33121,2.39539 4.63884,0.005 9.64499,2.96246 11.6824,6.90238 2.14435,4.14672 1.95413,10.91643 -0.41596,14.80354 -2.16804,3.55573 -8.56917,7.29034 -12.49565,7.29034 -2.45487,0 -2.54461,0.22583 -2.6823,6.75 -0.14405,6.82544 -0.13998,8.38198 0.0417,15.93873 0.10069,4.18766 0.10188,4.1889 4.67156,4.87416 7.51638,1.12715 13.43342,7.57838 13.42542,14.63745 -0.008,7.00302 -7.04491,13.7888 -14.30663,13.79592 -4.4124,4.88152 -3.09369,2.50642 -3.6486,26.11445 l -0.041,18.61071 5.16671,0.61192 c 11.43988,1.35488 16.87643,14.79331 9.21838,22.7866 -7.40483,9.32932 6.32428,3.80145 -4.73481,3.56314 -0.37809,0.37808 -2.59157,0.94156 -4.91885,1.25218 l -4.23143,0.56474 -0.27361,17.25 -0.27362,17.25 c -12.18657,0.33017 -22.06491,0.31495 -33.95277,-0.0724 z m 32.5,-1.42758 0.26705,-26.48049 c -11.1019,-64.8793 -3.3393,-128.50696 -0.76705,-182.022656 l 0,-7.932784 -15.38113,0.02385 -15.38113,0.02385 -0.55095,3.694119 c -0.30302,2.031763 -0.46902,7.519116 -0.36887,12.194111 l 0.18208,8.5 7,0.5 7,0.5 0,13.51842 0,13.51842 -6.75,-0.38126 -6.75,-0.38127 0,9.61284 c 0,9.58704 0.007,9.61285 2.5,9.61285 2.45273,0 2.72222,0.49499 2.72222,5 0,4.50501 -0.26949,5 -2.72222,5 -1.55556,0 -2.5,0.56667 -2.5,1.5 0,0.91124 0.92991,1.5 2.36916,1.5 1.96083,0 2.47598,0.64631 2.98899,3.75 1.10027,6.6566 0.90177,7.35398 -2.00326,7.03785 -1.45481,-0.15832 -2.84231,0.27465 -3.08333,0.96215 -0.28905,0.82448 0.61139,1.25 2.64511,1.25 3.0707,0 3.08333,0.0225 3.08333,5.5 0,5.47748 -0.0126,5.5 -3.08333,5.5 -5.00891,0 -2.89506,2.45859 2.4115,2.80479 l 4.67183,0.30479 0,7.94521 0,7.94521 -5,0 -5,0 0,14.5 0,14.5 7.90347,0 7.90347,0 0.37049,9.75 c 0.57413,15.109 0.96401,14.42849 -8.05562,14.06075 l -7.62181,-0.31075 -0.27207,18.75 -0.27206,18.75 c 29.13635,-16.05787 3.24328,0.84682 31.54413,-0.5 z m -14.50599,-111.2001 c -0.003,-5.38994 -0.295,-13.5124 -0.64822,-18.0499 l -0.64222,-8.25 6.14821,0 6.14822,0 0.11411,6.25 c 0.0628,3.4375 0.17526,11.425 0.25,17.75 l 0.13589,11.5 -5.75,0.2999 -5.75,0.29991 z m 24.97184,75.74237 c -3.14893,-6.66139 -8.93787,-25.58919 -8.96585,-7.04227 l 0,8 3.75,-0.0153 c 2.0625,-0.008 4.40963,-0.43251 5.21585,-0.94243 z m 5.445,-4.54655 c 2.73881,-4.17996 2.96433,-7.85914 0.78386,-12.78845 -2.2763,-5.14596 -4.19614,-6.4716 -10.65439,-7.3568 l -4.54032,-0.62232 c -0.18792,7.64652 6.6016,20.10494 11.63499,23.23906 0.62424,0.018 1.87338,-1.09413 2.77586,-2.47149 z m -4.65171,-69.49032 c 4.9644,-3.02683 7.4228,-7.66007 6.63536,-12.5054 -1.14351,-7.03636 -5.95778,-11.40138 -12.6445,-11.46456 l -3.75,-0.0354 0,13 0,13 3.25,-0.004 c 1.7875,-0.002 4.71661,-0.89794 6.50914,-1.99086 z m -0.66526,-56.55395 c 3.8736,-2.00311 6.89864,-7.02456 6.89864,-11.45145 0,-3.86403 -2.87745,-9.33287 -5.70742,-10.84742 -3.20828,-1.71702 -9.44617,-2.50999 -10.19635,-1.29618 -0.9673,1.56513 -1.36049,17.17819 -0.54242,21.53888 0.59439,3.16835 1.03196,3.60472 3.61462,3.60472 1.6161,0 4.28592,-0.69685 5.93293,-1.54855 z m 43.40612,159.54855 c 0.99549,-1.1 2.03498,-2 2.30998,-2 0.275,0 -0.31449,0.9 -1.30998,2 -0.99549,1.1 -2.03498,2 -2.30998,2 -0.275,0 0.31449,-0.9 1.30998,-2 z m 22.42431,-0.75 -2.42431,-2.75 2.75,2.42431 c 1.5125,1.33338 2.75,2.57088 2.75,2.75 0,0.78428 -0.8098,0.14598 -3.07569,-2.42431 z m -17.69812,-2.82872 c 0.94941,-0.99123 1.94144,-1.58698 2.20452,-1.3239 0.26308,0.26308 -0.5137,1.07408 -1.72619,1.80223 -2.10631,1.26492 -2.12762,1.24361 -0.47833,-0.47833 z m 12.82363,-0.86125 c -0.65728,-0.79198 -2.17488,-1.63069 -3.37244,-1.86381 -2.11592,-0.41189 -2.11824,-0.4277 -0.0824,-0.56004 1.15226,-0.0749 2.9095,0.76382 3.90499,1.86382 0.99549,1.1 1.57033,2 1.27743,2 -0.2929,0 -1.07032,-0.64798 -1.72761,-1.43997 z m 3.69132,-174.30276 -7.74273,-7.74273 14.25079,-13.709744 14.2508,-13.709745 7.75527,7.684255 7.75527,7.684254 -13.74187,13.76822 c -7.55803,7.57252 -13.97653,13.76822 -14.26334,13.76822 -0.2868,0 -4.00569,-3.48423 -8.26419,-7.74273 z m 97.16323,193.74273 c 5.04942,0 5.09708,-0.0295 5.25567,-3.25 l 0.16003,-3.25 0.40333,3.25 0.40332,3.25 22.93664,0 c 12.61515,0 22.93664,-0.21243 22.93664,-0.47207 0,-0.25964 -5.63131,-4.98464 -12.51401,-10.5 -8.38626,-6.72021 -13.41649,-10.07735 -15.25,-10.17776 l -2.73599,-0.14983 2.67647,-0.4095 c 2.1972,-0.33617 5.13914,1.57087 16.42924,10.64983 l 13.75277,11.05933 8.3352,0 8.33521,0 -0.48948,-64.75 c -4.32122,-77.52996 -0.55356,-117.98804 -1.03944,-167.749995 l -36,-0.04394 c -19.8,-0.02417 -47.0103,0.200831 -60.46734,0.5 l -24.46734,0.54394 c 0.74756,84.279665 1.22322,160.706295 1.59387,231.499995 l 21.1704,-0.036 21.17041,-0.036 c -9.45534,-7.85887 1.79288,0.0304 7.4044,0.072 z m 6.13567,-7.29966 c -0.1547,-3.08978 8.36145,-12.70547 11.24476,-12.6966 0.66836,0.002 -0.1348,0.83762 -1.7848,1.85682 -3.537,2.18478 -5.66305,4.52919 -7.8348,8.63944 -0.87182,1.65 -1.60314,2.64015 -1.62516,2.20034 z M 330.15258,255.85116 c -0.002,-64.51373 -1.28,-156.690975 -2.1732,-156.690975 -0.83159,0 -0.94342,193.768485 -0.1127,195.266305 1.82055,3.2825 2.28672,-4.58428 2.2859,-38.57533 z"
       id="path3018"
       inkscape:connector-curvature="0"
       sodipodi:nodetypes="ccccccccsccccccccssssscccssscsscccscccccscsssssccscssssssscssscssssssscsssssscccsscssscscscsssscsscsscccsssscccscsssscccscsscccccsssssssssssssssssssscsssssccscssssscsssscccccsscccccssccccsscsscscssccccccssssssscccsccsccccccccccsscccccccssssssssssssscccccccccsscccccsccccsccccscccsccsccccssccccccsssssssssssssssssscsscssssccscccccssscccccsssscsscccccssccccccssssscssc" />
    <text
       xml:space="preserve"
       style="font-size:22px;font-style:normal;font-variant:normal;font-weight:normal;font-stretch:normal;text-align:start;line-height:125%;letter-spacing:0px;word-spacing:0px;writing-mode:lr-tb;text-anchor:start;fill:#000000;fill-opacity:1;stroke:none;font-family:Linux Biolinum O;-inkscape-font-specification:Linux Biolinum O"
       x="58.150311"
       y="21.326912"
       id="text3058"
       sodipodi:linespacing="125%"><tspan
         sodipodi:role="line"
         id="tspan3060"
         x="58.150311"
         y="21.326912" /></text>
    <text
       xml:space="preserve"
       style="font-size:22px;font-style:normal;font-variant:normal;font-weight:normal;font-stretch:normal;text-align:start;line-height:125%;letter-spacing:0px;word-spacing:0px;writing-mode:lr-tb;text-anchor:start;fill:#000000;fill-opacity:1;stroke:none;font-family:Linux Biolinum O;-inkscape-font-specification:Linux Biolinum O"
       x="62.527214"
       y="20.701639"
       id="text3062"
       sodipodi:linespacing="125%"><tspan
         sodipodi:role="line"
         id="tspan3064"
         x="62.527214"
         y="20.701639"
         style="font-size:14px;font-style:normal;font-variant:normal;font-weight:normal;font-stretch:normal;text-align:start;line-height:125%;writing-mode:lr-tb;text-anchor:start;font-family:Linux Biolinum O;-inkscape-font-specification:Linux Biolinum O">Camera</tspan><tspan
         sodipodi:role="line"
         x="62.527214"
         y="38.201637"
         id="tspan3066"
         style="font-size:14px;font-style:normal;font-variant:normal;font-weight:normal;font-stretch:normal;text-align:start;line-height:125%;writing-mode:lr-tb;text-anchor:start;font-family:Linux Biolinum O;-inkscape-font-specification:Linux Biolinum O">focusing on </tspan><tspan
         sodipodi:role="line"
         x="62.527214"
         y="55.701637"
         id="tspan3068"
         style="font-size:14px;font-style:normal;font-variant:normal;font-weight:normal;font-stretch:normal;text-align:start;line-height:125%;writing-mode:lr-tb;text-anchor:start;font-family:Linux Biolinum O;-inkscape-font-specification:Linux Biolinum O">documentation</tspan></text>
    <text
       xml:space="preserve"
       style="font-size:14px;font-style:normal;font-variant:normal;font-weight:normal;font-stretch:normal;text-align:start;line-height:125%;letter-spacing:0px;word-spacing:0px;writing-mode:lr-tb;text-anchor:start;fill:#000000;fill-opacity:1;stroke:none;font-family:Linux Biolinum O;-inkscape-font-specification:Linux Biolinum O"
       x="195.08492"
       y="24.453274"
       id="text3070"
       sodipodi:linespacing="125%"><tspan
         sodipodi:role="line"
         id="tspan3072"
         x="195.08492"
         y="24.453274">Camera focusing </tspan><tspan
         sodipodi:role="line"
         x="195.08492"
         y="41.953274"
         id="tspan3074">on the user</tspan></text>
    <text
       xml:space="preserve"
       style="font-size:14px;font-style:normal;font-variant:normal;font-weight:normal;font-stretch:normal;text-align:start;line-height:125%;letter-spacing:0px;word-spacing:0px;writing-mode:lr-tb;text-anchor:start;fill:#000000;fill-opacity:1;stroke:none;font-family:Linux Biolinum O;-inkscape-font-specification:Linux Biolinum O"
       x="330.14371"
       y="19.451096"
       id="text3076"
       sodipodi:linespacing="125%"><tspan
         sodipodi:role="line"
         id="tspan3078"
         x="330.14371"
         y="19.451096">Sound-proof walls with one-way mirroros</tspan></text>
    <text
       xml:space="preserve"
       style="font-size:14px;font-style:normal;font-variant:normal;font-weight:normal;font-stretch:normal;text-align:start;line-height:125%;letter-spacing:0px;word-spacing:0px;writing-mode:lr-tb;text-anchor:start;fill:#000000;fill-opacity:1;stroke:none;font-family:Linux Biolinum O;-inkscape-font-specification:Linux Biolinum O"
       x="520.22644"
       y="48.213615"
       id="text3080"
       sodipodi:linespacing="125%"><tspan
         sodipodi:role="line"
         id="tspan3082"
         x="520.22644"
         y="48.213615">Event logger's workstation</tspan></text>
    <text
       xml:space="preserve"
       style="font-size:14px;font-style:normal;font-variant:normal;font-weight:normal;font-stretch:normal;text-align:start;line-height:125%;letter-spacing:0px;word-spacing:0px;writing-mode:lr-tb;text-anchor:start;fill:#000000;fill-opacity:1;stroke:none;font-family:Linux Biolinum O;-inkscape-font-specification:Linux Biolinum O"
       x="623.3963"
       y="113.24192"
       id="text3084"
       sodipodi:linespacing="125%"><tspan
         sodipodi:role="line"
         id="tspan3086"
         x="623.3963"
         y="113.24192">Large</tspan><tspan
         sodipodi:role="line"
         x="623.3963"
         y="130.74191"
         id="tspan3088">monitor</tspan><tspan
         sodipodi:role="line"
         x="623.3963"
         y="148.24193"
         id="tspan3090">duplicating</tspan><tspan
         sodipodi:role="line"
         x="623.3963"
         y="165.74193"
         id="tspan3092">user's</tspan><tspan
         sodipodi:role="line"
         x="623.3963"
         y="183.24193"
         id="tspan3094">screen</tspan></text>
    <text
       xml:space="preserve"
       style="font-size:14px;font-style:normal;font-variant:normal;font-weight:normal;font-stretch:normal;text-align:start;line-height:125%;letter-spacing:0px;word-spacing:0px;writing-mode:lr-tb;text-anchor:start;fill:#000000;fill-opacity:1;stroke:none;font-family:Linux Biolinum O;-inkscape-font-specification:Linux Biolinum O"
       x="517.72534"
       y="208.28329"
       id="text3096"
       sodipodi:linespacing="125%"><tspan
         sodipodi:role="line"
         id="tspan3098"
         x="517.72534"
         y="208.28329">Executive</tspan><tspan
         sodipodi:role="line"
         x="517.72534"
         y="225.78329"
         id="tspan3100">Observation</tspan><tspan
         sodipodi:role="line"
         x="517.72534"
         y="243.28329"
         id="tspan3102">Lounge</tspan></text>
    <text
       xml:space="preserve"
       style="font-size:14px;font-style:normal;font-variant:normal;font-weight:normal;font-stretch:normal;text-align:start;line-height:125%;letter-spacing:0px;word-spacing:0px;writing-mode:lr-tb;text-anchor:start;fill:#000000;fill-opacity:1;stroke:none;font-family:Linux Biolinum O;-inkscape-font-specification:Linux Biolinum O"
       x="388.29401"
       y="153.25934"
       id="text3104"
       sodipodi:linespacing="125%"><tspan
         sodipodi:role="line"
         id="tspan3106"
         x="388.29401"
         y="153.25934">Observation</tspan><tspan
         sodipodi:role="line"
         x="388.29401"
         y="170.75934"
         id="tspan3108">Room</tspan></text>
    <text
       xml:space="preserve"
       style="font-size:14px;font-style:normal;font-variant:normal;font-weight:normal;font-stretch:normal;text-align:start;line-height:125%;letter-spacing:0px;word-spacing:0px;writing-mode:lr-tb;text-anchor:start;fill:#000000;fill-opacity:1;stroke:none;font-family:Linux Biolinum O;-inkscape-font-specification:Linux Biolinum O"
       x="13.130715"
       y="202.65584"
       id="text3114"
       sodipodi:linespacing="125%"><tspan
         sodipodi:role="line"
         x="13.130715"
         y="202.65584"
         id="tspan3118">User's workplace</tspan><tspan
         sodipodi:role="line"
         x="13.130715"
         y="220.15584"
         id="tspan3122">with computer</tspan><tspan
         sodipodi:role="line"
         x="13.130715"
         y="237.65584"
         id="tspan3124">and manual</tspan></text>
    <text
       xml:space="preserve"
       style="font-size:14px;font-style:normal;font-variant:normal;font-weight:normal;font-stretch:normal;text-align:start;line-height:125%;letter-spacing:0px;word-spacing:0px;writing-mode:lr-tb;text-anchor:start;fill:#000000;fill-opacity:1;stroke:none;font-family:Linux Biolinum O;-inkscape-font-specification:Linux Biolinum O"
       x="12.505443"
       y="350.84534"
       id="text3126"
       sodipodi:linespacing="125%"><tspan
         sodipodi:role="line"
         id="tspan3128"
         x="12.505443"
         y="350.84534">Camera</tspan><tspan
         sodipodi:role="line"
         x="12.505443"
         y="368.34534"
         id="tspan3130">focusing on computer</tspan></text>
    <text
       xml:space="preserve"
       style="font-size:14px;font-style:normal;font-variant:normal;font-weight:normal;font-stretch:normal;text-align:start;line-height:125%;letter-spacing:0px;word-spacing:0px;writing-mode:lr-tb;text-anchor:start;fill:#000000;fill-opacity:1;stroke:none;font-family:Linux Biolinum O;-inkscape-font-specification:Linux Biolinum O"
       x="162.57076"
       y="358.97388"
       id="text3132"
       sodipodi:linespacing="125%"><tspan
         sodipodi:role="line"
         x="162.57076"
         y="358.97388"
         id="tspan3136">Extra chair for experimenter</tspan><tspan
         sodipodi:role="line"
         x="162.57076"
         y="376.47388"
         id="tspan3138">in room or a second user</tspan></text>
    <text
       xml:space="preserve"
       style="font-size:14px;font-style:normal;font-variant:normal;font-weight:normal;font-stretch:normal;text-align:start;line-height:125%;letter-spacing:0px;word-spacing:0px;writing-mode:lr-tb;text-anchor:start;fill:#000000;fill-opacity:1;stroke:none;font-family:Linux Biolinum O;-inkscape-font-specification:Linux Biolinum O"
       x="286.37466"
       y="405.86929"
       id="text3146"
       sodipodi:linespacing="125%"><tspan
         sodipodi:role="line"
         id="tspan3148"
         x="286.37466"
         y="405.86929">Experimenter's workstation</tspan></text>
    <text
       xml:space="preserve"
       style="font-size:14px;font-style:normal;font-variant:normal;font-weight:normal;font-stretch:normal;text-align:start;line-height:125%;letter-spacing:0px;word-spacing:0px;writing-mode:lr-tb;text-anchor:start;fill:#000000;fill-opacity:1;stroke:none;font-family:Linux Biolinum O;-inkscape-font-specification:Linux Biolinum O"
       x="390.7951"
       y="334.58826"
       id="text3150"
       sodipodi:linespacing="125%"><tspan
         sodipodi:role="line"
         id="tspan3152"
         x="390.7951"
         y="334.58826">Monitors showing view from</tspan><tspan
         sodipodi:role="line"
         x="390.7951"
         y="352.08826"
         id="tspan3154">each camera and the mix </tspan><tspan
         sodipodi:role="line"
         x="390.7951"
         y="369.58826"
         id="tspan3156">being taped</tspan></text>
    <text
       xml:space="preserve"
       style="font-size:14px;font-style:normal;font-variant:normal;font-weight:normal;font-stretch:normal;text-align:start;line-height:125%;letter-spacing:0px;word-spacing:0px;writing-mode:lr-tb;text-anchor:start;fill:#000000;fill-opacity:1;stroke:none;font-family:Linux Biolinum O;-inkscape-font-specification:Linux Biolinum O"
       x="599.01074"
       y="350.84534"
       id="text3158"
       sodipodi:linespacing="125%"><tspan
         sodipodi:role="line"
         id="tspan3160"
         x="599.01074"
         y="350.84534">Video editing and</tspan><tspan
         sodipodi:role="line"
         x="599.01074"
         y="368.34534"
         id="tspan3162">mixing controls</tspan></text>
  </g>
  <g
     inkscape:groupmode="layer"
     id="layer2"
     inkscape:label="paus"
     style="display:inline">
    <text
       xml:space="preserve"
       style="font-size:14px;font-style:normal;font-variant:normal;font-weight:normal;font-stretch:normal;text-align:start;line-height:125%;letter-spacing:0px;word-spacing:0px;writing-mode:lr-tb;text-anchor:start;fill:#000000;fill-opacity:1;stroke:none;display:inline;font-family:Linux Biolinum O;-inkscape-font-specification:Linux Biolinum O"
       x="230.72775"
       y="130.24136"
       id="text3110"
       sodipodi:linespacing="125%"><tspan
         sodipodi:role="line"
         id="tspan3112"
         x="230.72775"
         y="130.24136">Test Room</tspan></text>
  </g>
  <g
     inkscape:groupmode="layer"
     id="layer5"
     inkscape:label="arrows"
     style="display:inline">
    <path
       style="opacity:1;fill:none;stroke:#000000;stroke-width:1px;stroke-linecap:butt;stroke-linejoin:miter;stroke-opacity:1;marker-end:url(#Arrow2Lend);display:inline"
       d="m 113.17425,56.342152 25.63616,67.529398"
       id="path3932"
       inkscape:connector-curvature="0"
       sodipodi:nodetypes="cc" />
    <path
       style="fill:none;stroke:#000000;stroke-width:1px;stroke-linecap:butt;stroke-linejoin:miter;stroke-opacity:1;marker-end:url(#Arrow2Lend);display:inline"
       d="M 273.96997,32.834299 C 295.8545,73.476986 301.4191,82.098602 301.4191,82.098602"
       id="path4748"
       inkscape:connector-curvature="0"
       sodipodi:nodetypes="cc" />
    <path
       style="fill:none;stroke:#000000;stroke-width:1px;stroke-linecap:butt;stroke-linejoin:miter;stroke-opacity:1;marker-end:url(#marker5487);display:inline;marker-start:url(#Arrow1Lstart)"
       d="m 332.64478,69.472868 c 0,0 0,0 79.40957,-48.771229 25.09608,20.767316 58.3305,33.898353 80.97274,57.525035"
       id="path4750"
       inkscape:connector-curvature="0"
       sodipodi:nodetypes="ccc" />
    <path
       style="opacity:1;fill:none;stroke:#000000;stroke-width:1px;stroke-linecap:butt;stroke-linejoin:miter;stroke-opacity:1;marker-end:url(#Arrow2Lend);display:inline"
       d="M 518.97589,43.211437 C 353.90404,111.99137 353.90404,111.99137 353.90404,111.99137"
       id="path4752"
       inkscape:connector-curvature="0" />
    <path
       style="opacity:1;fill:none;stroke:#000000;stroke-width:1px;stroke-linecap:butt;stroke-linejoin:miter;stroke-opacity:1;marker-end:url(#Arrow2Lend);display:inline"
       d="M 624.02161,131.37481 C 470.20466,107.61447 469.57939,107.61447 469.57939,107.61447"
       id="path4754"
       inkscape:connector-curvature="0" />
    <path
       style="fill:none;stroke:#000000;stroke-width:1px;stroke-linecap:butt;stroke-linejoin:miter;stroke-opacity:1;marker-end:url(#Arrow2Lend);display:inline"
       d="M 597.1349,350.08825 376.41384,210.33992 367.34739,205.65038"
       id="path4758"
       inkscape:connector-curvature="0"
       sodipodi:nodetypes="ccc" />
    <path
       style="fill:none;stroke:#000000;stroke-width:1px;stroke-linecap:butt;stroke-linejoin:miter;stroke-opacity:1;marker-end:url(#Arrow2Lend);display:inline"
       d="M 387.66874,396.67102 351.71559,279.11986"
       id="path4760"
       inkscape:connector-curvature="0" />
    <path
       style="fill:none;stroke:#000000;stroke-width:1px;stroke-linecap:butt;stroke-linejoin:miter;stroke-opacity:1;marker-end:url(#Arrow2Lend);display:inline;opacity:1"
       d="m 420.80816,324.76472 c 0,-1.25054 -70.34312,-103.48254 -70.34312,-103.48254"
       id="path4762"
       inkscape:connector-curvature="0" />
    <path
       style="fill:none;stroke:#000000;stroke-width:1px;stroke-linecap:butt;stroke-linejoin:miter;stroke-opacity:1;marker-end:url(#Arrow2Lend);display:inline;opacity:1"
       d="m 223.53479,349.46297 c 0,-1.56318 7.19063,-56.89976 7.19063,-56.89976"
       id="path4764"
       inkscape:connector-curvature="0" />
    <path
       style="fill:none;stroke:#000000;stroke-width:1px;stroke-linecap:butt;stroke-linejoin:miter;stroke-opacity:1;marker-end:url(#Arrow2Lend);display:inline"
       d="M 69.405204,350.71352 171.94983,274.11768"
       id="path4766"
       inkscape:connector-curvature="0" />
    <path
       style="fill:none;stroke:#000000;stroke-width:1px;stroke-linecap:butt;stroke-linejoin:miter;stroke-opacity:1;marker-end:url(#Arrow2Lend);display:inline;opacity:1"
       d="m 105.35835,220.65691 c 1.87582,0 73.78211,-15.31917 73.78211,-15.31917"
       id="path4768"
       inkscape:connector-curvature="0" />
  </g>
</svg>
